# xmcd
#
# Track frame offsets:
#	150
#	16335
#	31720
#	46945
#	64927
#	80269
#	97585
#	116764
#	134915
#	153584
#	172562
#	190931
#
# Disc length: 2833 seconds
#
# Revision: 1
# Processed by: cddbd v1.5.2PL0 Copyright (c) Steve Scherf et al.
# Submitted via: audiograbber 1.83.01
#
DISCID=8d0b0f0c
DTITLE=Dolly Parton - Blue Smoke
DYEAR=2014
DGENRE=Bluegrass
TTITLE0=Blue Smoke
TTITLE1=Unlikely Angel
TTITLE2=Don't Think Twice
TTITLE3=You Can't Make Old Friends
TTITLE4=Home
TTITLE5=Banks Of The Ohio
TTITLE6=Lay Your Hands On Me
TTITLE7=Miss You - Miss Me
TTITLE8=If I Had Wings
TTITLE9=Lover Du Jour
TTITLE10=From Here To The Moon And Back
TTITLE11=Try
EXTD=
EXTT0=
EXTT1=
EXTT2=
EXTT3=
EXTT4=
EXTT5=
EXTT6=
EXTT7=
EXTT8=
EXTT9=
EXTT10=
EXTT11=
PLAYORDER=
